<?xml version="1.0" encoding="utf-8"?>
<!-- Generator: Adobe Illustrator 16.0.0, SVG Export Plug-In . SVG Version: 6.00 Build 0)  -->
<!DOCTYPE svg PUBLIC "-//W3C//DTD SVG 1.1//EN" "http://www.w3.org/Graphics/SVG/1.1/DTD/svg11.dtd">
<svg version="1.1" id="Layer_1" xmlns="http://www.w3.org/2000/svg" xmlns:xlink="http://www.w3.org/1999/xlink" x="0px" y="0px"
	 width="800px" height="400px" viewBox="-149 12 800 400" enable-background="new -149 12 800 400" xml:space="preserve">
<circle fill="none" stroke="#000000" stroke-width="15" stroke-opacity="0.1" cx="499.147" cy="141.437" r="34"/>
<g>
	<defs>
		<rect id="SVGID_1_" x="-98.307" y="75.845" width="161.847" height="142.03"/>
	</defs>
	<clipPath id="SVGID_2_">
		<use xlink:href="#SVGID_1_"  overflow="visible"/>
	</clipPath>
	<g clip-path="url(#SVGID_2_)">
		<path fill="none" stroke="#8F9294" stroke-width="1.08" stroke-miterlimit="10" d="M-93.649,76.402h-4.1v4.094h4.1V76.402z"/>
		<path fill="none" stroke="#8F9294" stroke-width="1.08" stroke-miterlimit="10" d="M-62.329,76.402h-4.1v4.094h4.1V76.402z"/>
		<path fill="none" stroke="#8F9294" stroke-width="1.08" stroke-miterlimit="10" d="M-30.999,76.402h-4.099v4.094h4.099V76.402z"/>
		<path fill="none" stroke="#8F9294" stroke-width="1.08" stroke-miterlimit="10" d="M0.332,76.402h-4.099v4.094h4.099V76.402z"/>
		<path fill="none" stroke="#8F9294" stroke-width="1.08" stroke-miterlimit="10" d="M31.652,76.402h-4.099v4.094h4.099V76.402z"/>
		<path fill="none" stroke="#8F9294" stroke-width="1.08" stroke-miterlimit="10" d="M62.983,76.402h-4.101v4.094h4.101V76.402z"/>
		<path fill="none" stroke="#8F9294" stroke-width="1.08" stroke-miterlimit="10" d="M-93.649,99.202h-4.1v4.094h4.1V99.202z"/>
		<path fill="none" stroke="#FF2C2C" stroke-width="1.08" stroke-miterlimit="10" d="M-62.329,99.202h-4.1v4.094h4.1V99.202z"/>
		<path fill="none" stroke="#8F9294" stroke-width="1.08" stroke-miterlimit="10" d="M-30.999,99.202h-4.099v4.094h4.099V99.202z"/>
		<path fill="none" stroke="#8F9294" stroke-width="1.08" stroke-miterlimit="10" d="M0.332,99.202h-4.099v4.094h4.099V99.202z"/>
		<path fill="none" stroke="#8F9294" stroke-width="1.08" stroke-miterlimit="10" d="M31.652,99.202h-4.099v4.094h4.099V99.202z"/>
		<path fill="none" stroke="#8F9294" stroke-width="1.08" stroke-miterlimit="10" d="M62.983,99.202h-4.101v4.094h4.101V99.202z"/>
		<path fill="none" stroke="#8F9294" stroke-width="1.08" stroke-miterlimit="10" d="M-93.649,122.012h-4.1v4.094h4.1V122.012z"/>
		<path fill="none" stroke="#8F9294" stroke-width="1.08" stroke-miterlimit="10" d="M-62.329,122.012h-4.1v4.094h4.1V122.012z"/>
		<path fill="none" stroke="#8F9294" stroke-width="1.08" stroke-miterlimit="10" d="M-30.999,122.012h-4.099v4.094h4.099V122.012z"
			/>
		<path fill="none" stroke="#FF2C2C" stroke-width="1.08" stroke-miterlimit="10" d="M0.332,122.012h-4.099v4.094h4.099V122.012z"/>
		<path fill="none" stroke="#8F9294" stroke-width="1.08" stroke-miterlimit="10" d="M31.652,122.012h-4.099v4.094h4.099V122.012z"
			/>
		<path fill="none" stroke="#8F9294" stroke-width="1.08" stroke-miterlimit="10" d="M62.983,122.012h-4.101v4.094h4.101V122.012z"
			/>
		<path fill="none" stroke="#8F9294" stroke-width="1.08" stroke-miterlimit="10" d="M-93.649,144.813h-4.1v4.094h4.1V144.813z"/>
		<path fill="none" stroke="#8F9294" stroke-width="1.08" stroke-miterlimit="10" d="M-62.329,144.813h-4.1v4.094h4.1V144.813z"/>
		<path fill="none" stroke="#8F9294" stroke-width="1.08" stroke-miterlimit="10" d="M-30.999,144.813h-4.099v4.094h4.099V144.813z"
			/>
		<path fill="none" stroke="#8F9294" stroke-width="1.08" stroke-miterlimit="10" d="M0.332,144.813h-4.099v4.094h4.099V144.813z"/>
		<path fill="none" stroke="#8F9294" stroke-width="1.08" stroke-miterlimit="10" d="M31.652,144.813h-4.099v4.094h4.099V144.813z"
			/>
		<path fill="none" stroke="#8F9294" stroke-width="1.08" stroke-miterlimit="10" d="M62.983,144.813h-4.101v4.094h4.101V144.813z"
			/>
		<path fill="none" stroke="#8F9294" stroke-width="1.08" stroke-miterlimit="10" d="M-93.649,167.613h-4.1v4.095h4.1V167.613z"/>
		<path fill="#0F1027" d="M-62.329,167.613h-4.1v4.095h4.1V167.613z"/>
		<path fill="#0F1027" d="M-30.999,167.613h-4.099v4.095h4.099V167.613z"/>
		<path fill="none" stroke="#8F9294" stroke-width="1.08" stroke-miterlimit="10" d="M0.332,167.613h-4.099v4.095h4.099V167.613z"/>
		<path fill="none" stroke="#FF2C2C" stroke-width="1.08" stroke-miterlimit="10" d="M31.652,167.613h-4.099v4.095h4.099V167.613z"
			/>
		<path fill="none" stroke="#8F9294" stroke-width="1.08" stroke-miterlimit="10" d="M62.983,167.613h-4.101v4.095h4.101V167.613z"
			/>
		<path fill="none" stroke="#8F9294" stroke-width="1.08" stroke-miterlimit="10" d="M-93.649,190.422h-4.1v4.095h4.1V190.422z"/>
		<path fill="none" stroke="#8F9294" stroke-width="1.08" stroke-miterlimit="10" d="M-62.329,190.422h-4.1v4.095h4.1V190.422z"/>
		<path fill="none" stroke="#8F9294" stroke-width="1.08" stroke-miterlimit="10" d="M-30.999,190.422h-4.099v4.095h4.099V190.422z"
			/>
		<path fill="#0F1027" d="M0.332,190.422h-4.099v4.095h4.099V190.422z"/>
		<path fill="none" stroke="#8F9294" stroke-width="1.08" stroke-miterlimit="10" d="M31.652,190.422h-4.099v4.095h4.099V190.422z"
			/>
		<path fill="none" stroke="#8F9294" stroke-width="1.08" stroke-miterlimit="10" d="M62.983,190.422h-4.101v4.095h4.101V190.422z"
			/>
		<path fill="none" stroke="#8F9294" stroke-width="1.08" stroke-miterlimit="10" d="M-93.649,213.223h-4.1v4.094h4.1V213.223z"/>
		<path fill="none" stroke="#8F9294" stroke-width="1.08" stroke-miterlimit="10" d="M-62.329,213.223h-4.1v4.094h4.1V213.223z"/>
		<path fill="none" stroke="#8F9294" stroke-width="1.08" stroke-miterlimit="10" d="M-30.999,213.223h-4.099v4.094h4.099V213.223z"
			/>
		<path fill="none" stroke="#8F9294" stroke-width="1.08" stroke-miterlimit="10" d="M0.332,213.223h-4.099v4.094h4.099V213.223z"/>
		<path fill="#0F1027" d="M31.652,213.223h-4.099v4.094h4.099V213.223z"/>
		<path fill="none" stroke="#8F9294" stroke-width="1.08" stroke-miterlimit="10" d="M62.983,213.223h-4.101v4.094h4.101V213.223z"
			/>
	</g>
</g>
<circle fill="none" stroke="#000000" stroke-width="26" stroke-opacity="0.1" cx="63.54" cy="250.9" r="68.5"/>
<path fill="#7E57C2" d="M555.789,223.963H74.892v6.053h480.897V223.963z"/>
<path fill="#7E57C2" d="M103.537,228.305v144.332h3.751l4.719-144.332H103.537z"/>
<path fill="#7E57C2" d="M147.825,233.023v133.715h3.751l4.719-133.715H147.825z"/>
<path opacity="0.5" enable-background="new    " d="M147.825,233.023v133.715h3.751l4.719-133.715H147.825z"/>
<path fill="#7E57C2" d="M528.854,228.305v144.332h-3.74l-4.73-144.332H528.854z"/>
<path fill="#7E57C2" d="M484.566,233.023v133.715h-3.752l-4.719-133.715H484.566z"/>
<path opacity="0.5" enable-background="new    " d="M484.566,233.023v133.715h-3.752l-4.719-133.715H484.566z"/>
<path fill="#7E57C2" d="M537.408,236.492H94.688l-9.792-6.477H547.2L537.408,236.492z"/>
<path opacity="0.5" enable-background="new    " d="M537.408,236.492H94.688l-9.792-6.477H547.2L537.408,236.492z"/>
<path fill="#7E57C2" d="M106.498,205.404v4.718c0,0.783,0.309,1.535,0.861,2.088l3.74,3.741c0.331,0.33,0.735,0.576,1.18,0.721
	c0.771,1.658,2,3.064,3.542,4.049s3.334,1.508,5.164,1.508h1.404c1.27,0.008,2.528-0.236,3.703-0.719s2.241-1.193,3.139-2.09
	c0.897-0.898,1.608-1.965,2.09-3.139c0.482-1.176,0.727-2.434,0.719-3.703V201.57h-20.623v0.897h-1.97
	c-0.78,0-1.529,0.309-2.082,0.858C106.813,203.877,106.501,204.624,106.498,205.404z M108.857,205.404
	c0-0.077,0.015-0.153,0.045-0.224c0.03-0.071,0.074-0.136,0.128-0.189c0.055-0.055,0.12-0.096,0.192-0.124
	c0.071-0.029,0.148-0.042,0.225-0.041h1.97v7.752c0,0.105,0,0.213,0,0.318l-2.359-2.36c-0.057-0.053-0.102-0.117-0.132-0.188
	c-0.03-0.072-0.046-0.148-0.045-0.227L108.857,205.404z"/>
<path opacity="0.5" fill="#FFFFFF" enable-background="new    " d="M106.498,205.404v4.718c0,0.783,0.309,1.535,0.861,2.088
	l3.74,3.741c0.331,0.33,0.735,0.576,1.18,0.721c0.771,1.658,2,3.064,3.542,4.049s3.334,1.508,5.164,1.508h1.404
	c1.27,0.008,2.528-0.236,3.703-0.719s2.241-1.193,3.139-2.09c0.897-0.898,1.608-1.965,2.09-3.139
	c0.482-1.176,0.727-2.434,0.719-3.703V201.57h-20.623v0.897h-1.97c-0.78,0-1.529,0.309-2.082,0.858
	C106.813,203.877,106.501,204.624,106.498,205.404z M108.857,205.404c0-0.077,0.015-0.153,0.045-0.224
	c0.03-0.071,0.074-0.136,0.128-0.189c0.055-0.055,0.12-0.096,0.192-0.124c0.071-0.029,0.148-0.042,0.225-0.041h1.97v7.752
	c0,0.105,0,0.213,0,0.318l-2.359-2.36c-0.057-0.053-0.102-0.117-0.132-0.188c-0.03-0.072-0.046-0.148-0.045-0.227L108.857,205.404z"
	/>
<path fill="#7E57C2" d="M136.924,223.82h-29.659c-1.356-0.119-2.618-0.742-3.539-1.746h36.69
	C139.509,223.07,138.264,223.693,136.924,223.82z"/>
<path opacity="0.5" fill="#FFFFFF" enable-background="new    " d="M136.924,223.82h-29.659c-1.356-0.119-2.618-0.742-3.539-1.746
	h36.69C139.509,223.07,138.264,223.693,136.924,223.82z"/>
<path fill="#7E57C2" d="M535.945,209.38c-0.153-4.719-3.717-5.829-8.364-6.36v-1.711c-0.007-0.197-0.091-0.385-0.233-0.521
	c-0.144-0.137-0.336-0.212-0.534-0.209h-16.067c-0.1-0.003-0.198,0.014-0.291,0.048c-0.094,0.035-0.179,0.089-0.25,0.156
	c-0.072,0.067-0.132,0.149-0.172,0.24s-0.063,0.188-0.066,0.286v22.312h17.626v-2.441C532.24,220.66,535.804,214.076,535.945,209.38
	z M527.581,218.301v-12.389c3.421,0.495,5.78,0.967,5.273,4.388C532.454,213.037,530.306,217.922,527.581,218.301z"/>
<g opacity="0.5">
	<path opacity="0.5" fill="#FFFFFF" enable-background="new    " d="M535.945,209.38c-0.153-4.719-3.717-5.829-8.364-6.36v-1.711
		c-0.007-0.197-0.091-0.385-0.233-0.521c-0.144-0.137-0.336-0.212-0.534-0.209h-16.067c-0.1-0.003-0.198,0.014-0.291,0.048
		c-0.094,0.035-0.179,0.089-0.25,0.156c-0.072,0.067-0.132,0.149-0.172,0.24s-0.063,0.188-0.066,0.286v22.312h17.626v-2.441
		C532.24,220.66,535.804,214.076,535.945,209.38z M527.581,218.301v-12.389c3.421,0.495,5.78,0.967,5.273,4.388
		C532.454,213.037,530.306,217.922,527.581,218.301z"/>
</g>
<path fill="#7E57C2" d="M321.853,195.187h-13.908v28.257h13.908V195.187z"/>
<path opacity="0.5" fill="#FFFFFF" enable-background="new    " d="M321.853,195.187h-13.908v28.257h13.908V195.187z"/>
<path fill="#7E57C2" d="M328.141,223.951h-26.356l6.431-5.65h13.497L328.141,223.951z"/>
<path opacity="0.5" fill="#FFFFFF" enable-background="new    " d="M328.141,223.951h-26.356l6.431-5.65h13.497L328.141,223.951z"/>
<path fill="#7E57C2" d="M386.08,214.809H320.2l11.904,9.178h65.867L386.08,214.809z"/>
<path opacity="0.4" fill="#FFFFFF" enable-background="new    " d="M386.08,214.809H320.2l11.904,9.178h65.867L386.08,214.809z"/>
<path fill="#7E57C2" d="M321.723,223.986l-1.522-9.178l11.904,9.178H321.723z"/>
<path opacity="0.5" enable-background="new    " d="M321.723,223.986l-1.522-9.178l11.904,9.178H321.723z"/>
<path fill="#7E57C2" d="M374.518,128.306H254.618c-1.258,0-2.277,1.02-2.277,2.277v73.523c0,1.258,1.02,2.277,2.277,2.277h119.899
	c1.257,0,2.277-1.02,2.277-2.277v-73.523C376.795,129.326,375.774,128.306,374.518,128.306z"/>
<path opacity="0.5" enable-background="new    " d="M372.146,133.191H256.86v68.036h115.286V133.191z"/>
<path opacity="0.4" enable-background="new    " d="M368.478,147.183h-58.175v40.053h58.175V147.183z"/>
<path fill="#7E57C2" d="M368.478,147.183h-58.175v3.669h58.175V147.183z"/>
<path fill="#FFFFFF" d="M320.968,169.339l9.509,5.262c0.363,0.175,0.688,0.42,0.956,0.72c0.162,0.235,0.244,0.517,0.236,0.802
	c0,0.2-0.039,0.398-0.116,0.582c-0.077,0.186-0.19,0.352-0.333,0.492c-0.131,0.141-0.29,0.253-0.467,0.33
	c-0.176,0.076-0.366,0.117-0.559,0.117c-0.424-0.047-0.828-0.196-1.181-0.436l-12.269-6.818c-0.197-0.099-0.362-0.25-0.478-0.436
	c-0.116-0.188-0.177-0.402-0.177-0.621c0-0.22,0.061-0.435,0.177-0.621c0.115-0.187,0.28-0.337,0.478-0.435l12.269-6.819
	c0.354-0.229,0.76-0.37,1.181-0.413c0.193-0.003,0.385,0.034,0.564,0.11c0.179,0.075,0.34,0.186,0.473,0.326
	c0.145,0.137,0.258,0.302,0.334,0.485c0.077,0.183,0.116,0.379,0.115,0.577c0.01,0.286-0.073,0.568-0.236,0.802
	c-0.269,0.301-0.593,0.545-0.955,0.72L320.968,169.339z"/>
<path fill="#FFFFFF" d="M345.437,159.511l-9.439,20.28c-0.15,0.369-0.371,0.705-0.647,0.991c-0.256,0.2-0.573,0.304-0.897,0.295
	c-0.192,0.003-0.383-0.033-0.563-0.105c-0.178-0.073-0.34-0.182-0.475-0.318c-0.139-0.123-0.25-0.274-0.328-0.443
	c-0.077-0.168-0.118-0.351-0.121-0.537c0.033-0.412,0.154-0.814,0.354-1.179l9.439-20.269c0.146-0.361,0.359-0.693,0.625-0.979
	c0.259-0.202,0.579-0.31,0.908-0.307c0.19-0.002,0.381,0.034,0.557,0.107c0.178,0.073,0.336,0.181,0.471,0.318
	c0.133,0.123,0.239,0.273,0.313,0.439c0.072,0.167,0.111,0.347,0.111,0.528C345.726,158.742,345.622,159.144,345.437,159.511z"/>
<path fill="#FFFFFF" d="M357.27,169.339l-9.509-5.273c-0.359-0.181-0.682-0.425-0.956-0.72c-0.163-0.234-0.246-0.516-0.235-0.802
	c-0.003-0.198,0.036-0.394,0.113-0.577c0.078-0.183,0.191-0.348,0.335-0.485c0.136-0.14,0.299-0.251,0.479-0.326
	c0.181-0.075,0.375-0.112,0.57-0.11c0.42,0.045,0.823,0.187,1.18,0.413l12.27,6.819c0.196,0.098,0.361,0.248,0.477,0.435
	s0.177,0.401,0.177,0.621c0,0.219-0.062,0.434-0.177,0.621c-0.115,0.186-0.28,0.337-0.477,0.436l-12.27,6.818
	c-0.354,0.236-0.758,0.387-1.18,0.436c-0.199,0.004-0.397-0.036-0.58-0.115c-0.183-0.08-0.348-0.197-0.481-0.344
	c-0.14-0.14-0.25-0.306-0.325-0.487c-0.075-0.183-0.113-0.378-0.111-0.575c-0.009-0.285,0.073-0.566,0.235-0.802
	c0.274-0.295,0.597-0.538,0.956-0.72L357.27,169.339z"/>
<path fill="#FFFFFF" d="M265.53,139.467h-3.939v3.94h3.939V139.467z"/>
<path fill="#FFFFFF" d="M265.53,149.672h-3.939v3.94h3.939V149.672z"/>
<path fill="#FFFFFF" d="M265.53,159.865h-3.939v3.941h3.939V159.865z"/>
<path fill="#FFFFFF" d="M265.53,170.058h-3.939v3.941h3.939V170.058z"/>
<path fill="#FFFFFF" d="M265.53,180.252h-3.939v3.94h3.939V180.252z"/>
<path fill="#FFFFFF" d="M265.53,190.445h-3.939v3.94h3.939V190.445z"/>
<path fill="#FFFFFF" d="M284.974,140.364h-15.703v1.179h15.703V140.364z"/>
<path fill="#FFFFFF" d="M278.52,150.58h-5.592v1.18h5.592V150.58z"/>
<path fill="#FFFFFF" d="M302.858,162.048h-5.592v1.179h5.592V162.048z"/>
<path fill="#FFFFFF" d="M278.52,171.144h-5.592v1.18h5.592V171.144z"/>
<path fill="#FFFFFF" d="M286.577,171.144h-5.592v1.18h5.592V171.144z"/>
<path fill="#FFFFFF" d="M295.272,162.048h-14.287v1.179h14.287V162.048z"/>
<path fill="#FFFFFF" d="M298.718,171.144h-9.403v1.18h9.403V171.144z"/>
<path fill="#FFFFFF" d="M294.872,193.005h-5.592v1.18h5.592V193.005z"/>
<path fill="#FFFFFF" d="M302.94,193.005h-5.592v1.18h5.592V193.005z"/>
<path fill="#FFFFFF" d="M308.792,193.005h-3.125v1.18h3.125V193.005z"/>
<path fill="#FFFFFF" d="M298.718,150.58h-17.402v1.18h17.402V150.58z"/>
<path fill="#FFFFFF" d="M286.577,181.798h-5.592v1.18h5.592V181.798z"/>
<path fill="#FFFFFF" d="M291.686,181.798h-3.231v1.18h3.231V181.798z"/>
<path fill="#FFFFFF" d="M303.284,181.798h-9.133v1.18h9.133V181.798z"/>
<path fill="#7E57C2" d="M304.805,95.816c-0.294,14.275-15.124,26.249-33.14,26.721c-5.532,0.187-11.039-0.832-16.139-2.985
	c-1.816,4.484-5.64,8.33-16.6,10.052c11.432-8.836,5.179-16.316,2.572-22.887c-1.349-2.869-2.023-6.009-1.97-9.179
	c0.295-14.287,15.125-26.238,33.14-26.722C290.684,70.333,305.089,81.54,304.805,95.816z"/>
<path fill="#FFFFFF" d="M272.551,80.868h-15.703v1.18h15.703V80.868z"/>
<path fill="#FFFFFF" d="M266.097,91.096h-5.592v1.18h5.592V91.096z"/>
<path fill="#FFFFFF" d="M290.436,102.564h-5.592v1.18h5.592V102.564z"/>
<path fill="#FFFFFF" d="M266.097,111.66h-5.592v1.18h5.592V111.66z"/>
<path fill="#FFFFFF" d="M274.167,111.66h-5.592v1.18h5.592V111.66z"/>
<path fill="#FFFFFF" d="M282.862,102.564h-14.287v1.18h14.287V102.564z"/>
<path fill="#FFFFFF" d="M286.294,111.66h-9.402v1.18h9.402V111.66z"/>
<path fill="#FFFFFF" d="M286.307,91.096h-17.401v1.18h17.401V91.096z"/>
<path fill="#7F3E3B" d="M372.913,366.277l-8.601-2.57l2.007-21.084l8.6,2.572L372.913,366.277z"/>
<path opacity="0.2" enable-background="new    " d="M375.627,340.43l-8.601-2.561l-1.121,11.811l8.695,1.615L375.627,340.43z"/>
<path fill="#7E57C2" d="M423.819,236.066c0,0-59.141,4.992-57.689,30.674c1.18,21.025,4.306,15.338-1.817,77.865l14.877,0.826
	c0,0,15.136-51.131,13.095-71.447c16.671,0,54.837,1.463,60.382-13.578c2.751-7.639,4.09-15.715,3.952-23.832L423.819,236.066z"/>
<path fill="#263238" d="M381.549,348.264l-19.442-3.328l0.318-8.6l20.127,4.471L381.549,348.264z"/>
<path fill="#263238" d="M363.428,360.166l9.934,1.971c0.181,0.043,0.338,0.15,0.443,0.305c0.104,0.15,0.149,0.338,0.123,0.521
	l-0.826,9.438c-0.015,0.223-0.074,0.439-0.174,0.639c-0.099,0.199-0.238,0.377-0.407,0.523c-0.169,0.145-0.365,0.254-0.578,0.322
	c-0.212,0.068-0.436,0.094-0.658,0.074c-3.444-0.756-5.072-1.311-9.438-2.184c-2.689-0.531-8.836-1.816-12.576-2.24
	c-3.74-0.426-3.292-4.791-1.675-5.014c7.267-0.957,11.396-2.137,14.216-3.953C362.278,360.229,362.857,360.084,363.428,360.166z"/>
<path fill="#7E57C2" d="M358.969,361.854c0.78,0.107,1.571,0.131,2.358,0.07c0.041,0.002,0.08-0.01,0.111-0.033
	c0.032-0.023,0.055-0.057,0.066-0.096c0.018-0.035,0.027-0.074,0.027-0.111c0-0.039-0.01-0.078-0.027-0.113
	c-0.248-0.248-2.477-2.359-3.622-2.123c-0.132,0.021-0.257,0.08-0.358,0.166c-0.102,0.088-0.178,0.201-0.22,0.33
	c-0.093,0.186-0.135,0.391-0.123,0.598c0.013,0.209,0.079,0.408,0.194,0.582C357.792,361.563,358.362,361.824,358.969,361.854z
	 M360.868,361.535c-1.641,0-2.797-0.189-3.139-0.672c-0.07-0.113-0.107-0.244-0.107-0.377c0-0.135,0.037-0.266,0.107-0.379
	c0.018-0.063,0.053-0.119,0.102-0.166c0.048-0.045,0.105-0.078,0.17-0.092c0.555-0.119,1.947,0.824,2.914,1.697L360.868,361.535z"/>
<path fill="#7E57C2" d="M361.34,361.938h0.094c0.034-0.014,0.063-0.035,0.089-0.061c0.025-0.027,0.043-0.059,0.053-0.094
	c0-0.107,0.649-2.619-0.105-3.621c-0.092-0.135-0.215-0.246-0.359-0.322c-0.144-0.074-0.304-0.115-0.467-0.115
	c-0.177-0.025-0.357,0.01-0.511,0.1c-0.155,0.09-0.274,0.229-0.339,0.396c-0.365,0.932,0.648,2.996,1.439,3.67
	c0.014,0.014,0.029,0.027,0.047,0.035C361.3,361.934,361.319,361.938,361.34,361.938z M360.726,358.15
	c0.165,0.033,0.313,0.125,0.413,0.258c0.34,0.934,0.377,1.949,0.106,2.904c-0.719-0.807-1.1-1.859-1.062-2.939
	c0-0.117,0.13-0.248,0.437-0.236L360.726,358.15z"/>
<path fill="#7F3E3B" d="M334.571,369.559l-8.188-3.682l5.663-20.197l8.188,3.682L334.571,369.559z"/>
<path opacity="0.2" enable-background="new    " d="M341.614,344.158l-8.188-3.682l-2.914,10.418l8.188,3.68L341.614,344.158z"/>
<path fill="#7E57C2" d="M406.218,236.066c-0.389,0-66.303,6.785-66.385,29.141c-0.143,36.975-10.701,79.352-10.701,79.352
	l12.979,6.453c0,0,22.687-45.939,22.344-74.762c18.134-5.201,65.041,3.539,70.586-11.49c4.542-12.293,2.088-28.693,2.088-28.693
	H406.218z"/>
<path fill="#263238" d="M344.232,352.887l-17.46-7.855l1.404-7.15l18.416,6.359L344.232,352.887z"/>
<path fill="#263238" d="M327.196,359.094l9.959,2.064c0.187,0.061,0.344,0.188,0.446,0.357s0.14,0.367,0.106,0.563l-0.777,10.322
	c-0.143,1.121-0.943,1.889-1.807,1.711c-3.443-0.789-5.072-1.404-9.438-2.359c-2.689-0.543-10.016-2.359-13.709-3.291
	c-3.691-0.932-2.865-5.664-1.179-5.699c7.302-0.105,12.032-1.297,14.841-3.338c0.223-0.16,0.477-0.271,0.744-0.328
	S326.929,359.037,327.196,359.094z"/>
<path fill="#7E57C2" d="M323.163,361.322c0.691-0.381,1.345-0.83,1.945-1.344c0.031-0.027,0.053-0.064,0.066-0.104
	c0.012-0.039,0.014-0.08,0.005-0.121c-0.013-0.039-0.035-0.072-0.067-0.098c-0.031-0.025-0.07-0.041-0.109-0.043
	c-0.342,0-3.387-0.449-4.176,0.436c-0.088,0.102-0.148,0.221-0.178,0.352c-0.029,0.129-0.025,0.264,0.012,0.391
	c0.035,0.205,0.123,0.398,0.256,0.557s0.305,0.281,0.5,0.354C322.024,361.797,322.647,361.662,323.163,361.322z M324.495,359.943
	c-1.285,1.002-2.359,1.486-2.914,1.32c-0.123-0.055-0.231-0.143-0.312-0.252c-0.081-0.109-0.132-0.238-0.147-0.373
	c-0.021-0.061-0.023-0.127-0.008-0.188c0.015-0.064,0.045-0.121,0.09-0.166c0.354-0.426,1.959-0.461,3.232-0.342H324.495z"/>
<path fill="#7E57C2" d="M325.05,359.979l0.083-0.061c0.021-0.027,0.03-0.063,0.03-0.1c0-0.035-0.01-0.07-0.03-0.1
	c-0.06-0.084-1.038-2.502-2.229-2.867c-0.154-0.049-0.318-0.061-0.478-0.037c-0.159,0.025-0.312,0.086-0.443,0.18
	c-0.159,0.084-0.284,0.219-0.354,0.385c-0.071,0.166-0.083,0.35-0.035,0.523c0.247,0.979,2.288,2.029,3.338,2.1L325.05,359.979z
	 M322.301,357.289c0.078-0.035,0.163-0.053,0.248-0.053s0.17,0.018,0.248,0.053c0.829,0.547,1.466,1.344,1.817,2.277
	c-1.061-0.223-1.996-0.842-2.608-1.736c-0.07-0.094,0-0.283,0.213-0.447L322.301,357.289z"/>
<path fill="#7F3E3B" d="M428.609,164.738c1.735,3.728,3.162,7.313,4.59,11.042s2.69,7.456,3.857,11.279
	c1.168,3.822,2.183,7.738,2.997,11.797c0.888,4.217,1.331,8.515,1.321,12.825c-0.013,2.53-0.391,5.045-1.12,7.469
	c-0.463,1.482-1.126,2.895-1.972,4.199c-0.499,0.732-1.063,1.42-1.687,2.053l-0.507,0.496c-0.283,0.236-0.59,0.494-0.885,0.695
	c-0.499,0.34-1.028,0.631-1.581,0.873c-0.821,0.352-1.675,0.625-2.549,0.814c-0.688,0.141-1.387,0.244-2.088,0.307
	c-1.198,0.07-2.399,0.07-3.598,0c-2.129-0.105-4.248-0.342-6.348-0.709c-7.83-1.426-15.501-3.621-22.899-6.559l1.711-6.5
	c7.491,0.896,15.136,1.852,22.345,2.182c1.793,0,3.539,0.082,5.167,0c0.726-0.045,1.446-0.135,2.159-0.271
	c0.59-0.105,1.098-0.318,0.92-0.307c-0.119,0.035-0.229,0.092-0.33,0.164c-0.119,0.07-0.23,0.154-0.331,0.248
	c0.04-0.063,0.075-0.131,0.107-0.199c0.151-0.338,0.269-0.689,0.354-1.051c0.259-1.297,0.365-2.617,0.317-3.94
	c-0.179-3.379-0.681-6.734-1.498-10.017c-0.802-3.538-1.841-6.983-2.973-10.487c-1.133-3.504-2.36-7.008-3.705-10.5
	s-2.76-6.996-4.152-10.289L428.609,164.738z"/>
<path fill="#7F3E3B" d="M401.109,216.588l-7.821-4.399l-3.93,8.471c0,0,9.145,3.811,11.067,1.426L401.109,216.588z"/>
<path fill="#7F3E3B" d="M386.953,213.793l-3.575,5.662l5.98,1.146l3.93-8.473L386.953,213.793z"/>
<path fill="#7F3E3B" d="M410.371,171.462c-1.498,3.764-3.067,7.362-4.72,11.008c-1.651,3.646-3.303,7.231-5.049,10.818
	c-3.516,7.303-7.456,14.393-11.798,21.237c-1.18,1.746-2.36,3.479-3.681,5.213c-0.661,0.873-1.393,1.736-2.171,2.619
	c-0.425,0.449-0.768,0.863-1.263,1.322l-0.708,0.684l-0.4,0.379c-1.123,0.959-2.445,1.66-3.87,2.051
	c-0.751,0.215-1.516,0.375-2.288,0.484c-1.261,0.152-2.531,0.203-3.8,0.154c-2.19-0.068-4.375-0.285-6.535-0.648
	c-7.999-1.414-15.833-3.637-23.383-6.631l1.722-6.512c7.633,0.92,15.433,1.898,22.771,2.205c1.729,0.064,3.463,0.041,5.19-0.07
	c0.694-0.057,1.386-0.168,2.063-0.33c0.221-0.057,0.435-0.135,0.638-0.236c0.071,0,0-0.084-0.318,0.117
	c-0.118,0.063-0.226,0.143-0.319,0.236l0.119-0.143l0.33-0.363c0.212-0.213,0.473-0.568,0.72-0.852
	c0.483-0.611,0.979-1.273,1.475-1.995c0.979-1.402,1.935-2.961,2.879-4.542c1.887-3.16,3.646-6.523,5.368-9.922
	c1.722-3.396,3.374-6.865,5.002-10.357c3.244-6.961,6.418-14.157,9.438-21.119L410.371,171.462z"/>
<path fill="#7F3E3B" d="M345.778,215.338l-7.834-4.495l-3.928,8.471c0,0,9.143,3.822,11.078,1.439L345.778,215.338z"/>
<path fill="#7F3E3B" d="M331.622,212.555l-3.588,5.65l5.981,1.145l3.929-8.471L331.622,212.555z"/>
<path fill="#7F3E3B" d="M430.628,129.604l-5.003,5.793l-7.634,7.892l0.578,1.428c0.589,1.459,0.933,3.006,1.016,4.577
	c0.177,3.162-0.13,5.84-5.12,7.987c0,0-5.238,6.843,7.22,4.944c12.458-1.9,14.334-8.365,14.334-8.365
	C430.521,149.931,430.19,136.871,430.628,129.604z"/>
<path fill="#263238" d="M405.227,123.068c0,0.779-0.389,1.439-0.908,1.463c-0.519,0.024-0.932-0.59-0.943-1.368
	c-0.013-0.779,0.4-1.44,0.907-1.463C404.791,121.676,405.215,122.29,405.227,123.068z"/>
<path fill="#263238" d="M407.835,120.166c-0.076-0.001-0.151-0.02-0.217-0.058c-0.066-0.037-0.121-0.09-0.161-0.154
	c-0.307-0.501-0.723-0.925-1.218-1.24c-0.494-0.315-1.055-0.512-1.638-0.577c-0.121-0.006-0.235-0.059-0.319-0.147
	c-0.083-0.087-0.129-0.204-0.129-0.325c0-0.061,0.013-0.121,0.036-0.177c0.024-0.056,0.06-0.107,0.104-0.149
	s0.097-0.074,0.153-0.095c0.058-0.021,0.118-0.031,0.18-0.027c0.734,0.065,1.443,0.302,2.07,0.691s1.154,0.92,1.539,1.55
	c0.063,0.104,0.083,0.228,0.058,0.347c-0.027,0.119-0.099,0.223-0.199,0.29C408.015,120.14,407.926,120.165,407.835,120.166z"/>
<path fill="#630F0F" d="M404.943,123.54c-0.635,2.124-1.548,4.155-2.713,6.04c0.484,0.274,1.023,0.437,1.578,0.477
	c0.555,0.041,1.111-0.041,1.631-0.241L404.943,123.54z"/>
<path fill="#7F3E3B" d="M431.336,119.14c-0.461,9.626-0.248,15.337-5.026,20.433c-1.536,1.693-3.506,2.934-5.696,3.588
	c-2.189,0.655-4.517,0.699-6.729,0.127c-2.213-0.572-4.229-1.739-5.827-3.373c-1.598-1.634-2.719-3.673-3.243-5.899
	c-2.17-8.529-1.038-22.84,8.259-27.134c2-0.991,4.228-1.436,6.455-1.29c2.228,0.147,4.377,0.879,6.23,2.123
	c1.854,1.244,3.346,2.956,4.325,4.962C431.063,114.683,431.495,116.913,431.336,119.14z"/>
<path fill="#263238" d="M435.7,122.36c-1.389,4.084-3.508,7.881-6.253,11.208l-12.528,2.36c0,0-9.898-4.141-7.256-10.96
	c-1.676-1.416-1.051-5.793,0.13-8.2c0.95,0.78,2.148,1.192,3.378,1.159c1.228-0.032,2.403-0.506,3.311-1.336
	c0.38,0.594,0.892,1.092,1.494,1.456c0.604,0.363,1.283,0.583,1.985,0.641s1.407-0.046,2.063-0.306
	c0.655-0.259,1.242-0.666,1.714-1.189c0.537,0.52,1.188,0.908,1.899,1.134s1.466,0.285,2.205,0.17
	c0.738-0.114,1.439-0.398,2.05-0.829c0.61-0.431,1.112-0.997,1.467-1.655c0.771,0.482,1.672,0.709,2.578,0.649
	c0.906-0.059,1.771-0.402,2.472-0.979l0.178-0.165C436.755,117.835,436.454,120.162,435.7,122.36z"/>
<path opacity="0.1" fill="#FFFFFF" enable-background="new    " d="M435.7,122.36c-1.389,4.084-3.508,7.881-6.253,11.208
	l-12.528,2.36c0,0-9.898-4.141-7.256-10.96c-1.676-1.416-1.051-5.793,0.13-8.2c0.95,0.78,2.148,1.192,3.378,1.159
	c1.228-0.032,2.403-0.506,3.311-1.336c0.38,0.594,0.892,1.092,1.494,1.456c0.604,0.363,1.283,0.583,1.985,0.641
	s1.407-0.046,2.063-0.306c0.655-0.259,1.242-0.666,1.714-1.189c0.537,0.52,1.188,0.908,1.899,1.134s1.466,0.285,2.205,0.17
	c0.738-0.114,1.439-0.398,2.05-0.829c0.61-0.431,1.112-0.997,1.467-1.655c0.771,0.482,1.672,0.709,2.578,0.649
	c0.906-0.059,1.771-0.402,2.472-0.979l0.178-0.165C436.755,117.835,436.454,120.162,435.7,122.36z"/>
<path fill="#263238" d="M437.506,110.681c0.34,0.797,0.433,1.678,0.27,2.529c-0.164,0.851-0.579,1.634-1.189,2.249l-0.178,0.165
	c-0.7,0.577-1.565,0.92-2.472,0.979c-0.906,0.06-1.808-0.167-2.578-0.649c-0.354,0.658-0.856,1.224-1.467,1.655
	c-0.61,0.431-1.312,0.715-2.05,0.829c-0.739,0.115-1.493,0.056-2.205-0.17s-1.362-0.614-1.899-1.134
	c-0.472,0.523-1.058,0.93-1.714,1.189c-0.655,0.26-1.36,0.364-2.063,0.306c-0.702-0.058-1.381-0.278-1.985-0.641
	c-0.603-0.364-1.114-0.862-1.494-1.456c-0.907,0.83-2.083,1.304-3.311,1.336c-1.229,0.033-2.428-0.379-3.378-1.159
	c-0.502-0.389-0.906-0.89-1.181-1.463c-0.064-0.125-0.119-0.255-0.165-0.389c-0.101,0.115-0.212,0.222-0.329,0.319
	c-0.59,0.47-1.31,0.746-2.062,0.79c-0.752,0.045-1.499-0.145-2.139-0.543c-0.507-0.351-0.912-0.829-1.178-1.386
	c-0.265-0.556-0.38-1.173-0.333-1.787c0.014-0.256,0.058-0.51,0.13-0.755c-0.094,0.177-0.213,0.34-0.354,0.483
	c-0.281,0.272-0.613,0.485-0.978,0.626c-0.364,0.142-0.753,0.21-1.145,0.2c-0.391-0.01-0.774-0.097-1.132-0.257
	c-0.357-0.16-0.678-0.39-0.945-0.675c-0.271-0.411-0.458-0.874-0.546-1.36c-0.088-0.485-0.076-0.983,0.034-1.464
	s0.317-0.935,0.608-1.333c0.29-0.399,0.658-0.735,1.083-0.987c0.673-0.392,1.438-0.595,2.218-0.589
	c1.227,0.017,2.414,0.431,3.386,1.179c-0.375-0.743-0.475-1.595-0.284-2.406c0.192-0.81,0.663-1.527,1.331-2.025
	c0.668-0.497,1.49-0.743,2.321-0.695c0.832,0.049,1.619,0.39,2.224,0.962c-0.131-0.602-0.079-1.23,0.15-1.802
	c0.229-0.572,0.625-1.063,1.136-1.407c1.628-0.944,4.342-0.13,5.663,1.451c0,0,1.817-4.389,4.955-3.893
	c0.684,0.094,3.905,1.521,3.823,2.678c0.017,0.073,0.017,0.15,0,0.224c0.044-0.091,0.095-0.177,0.152-0.26
	c0.348-0.468,0.805-0.843,1.331-1.092c0.527-0.249,1.107-0.364,1.689-0.335c1.261,0.093,2.494,0.421,3.634,0.967
	c2.442,1.003,5.037,2.124,6.453,4.354C440.762,106.268,440.042,109.973,437.506,110.681z"/>
<path fill="#7F3E3B" d="M415.185,125.9c-0.348,2.376-1.438,4.581-3.115,6.3c-2.135,2.041-3.951,0-3.976-3.103
	c0-2.808,1.05-7.256,3.539-8.082C414.123,120.19,415.655,122.797,415.185,125.9z"/>
<path fill="#263238" d="M452.937,157.211c-0.885-2.36-5.014-4.719-7.55-4.719h-1.676c-3.379,0.029-6.755,0.246-10.11,0.648
	c-6.744,0.747-13.439,1.873-20.056,3.375c-3.044,0.802-5.982,1.816-8.318,2.689c-2.973,1.18-4.719,1.971-4.719,1.971
	s3.256,21.684,4.942,43.226c0.933,11.999,0.543,23.903,0.851,32.091h50.329c1.733-9.84,1.463-18.416,1.604-36.185
	C458.305,189.607,456.57,166.92,452.937,157.211z"/>
<path opacity="0.2" enable-background="new    " d="M404.354,192.368c0.378,4.518,0.768,9.261,1.18,14.004
	c5.899-8.613,9.155-32.173,9.155-32.173L404.354,192.368z"/>
<path fill="#263238" d="M397.652,162.756c-7.208,4.058-14.274,24.775-14.274,24.775l16.517,12.446
	c6.3-5.959,15.514-20.74,16.517-26.651C418.016,164.313,409.203,156.29,397.652,162.756z"/>
<path fill="#263238" d="M383.401,374.17c0,1.016-0.301,2.008-0.864,2.852c-0.564,0.844-1.366,1.502-2.305,1.891
	c-0.937,0.389-1.969,0.49-2.965,0.291c-0.995-0.197-1.91-0.686-2.627-1.404c-0.718-0.717-1.207-1.631-1.405-2.627
	c-0.197-0.996-0.096-2.027,0.292-2.965c0.39-0.938,1.046-1.74,1.891-2.303c0.844-0.564,1.837-0.865,2.852-0.865
	c1.361,0,2.666,0.541,3.628,1.502C382.86,371.504,383.401,372.811,383.401,374.17z"/>
<path fill="#263238" d="M460.016,374.17c0,1.016,0.301,2.008,0.865,2.852c0.563,0.844,1.365,1.502,2.303,1.891
	c0.938,0.389,1.969,0.49,2.965,0.291c0.995-0.197,1.91-0.686,2.628-1.404c0.717-0.717,1.206-1.631,1.404-2.627
	s0.096-2.027-0.292-2.965s-1.046-1.74-1.89-2.303c-0.845-0.564-1.836-0.865-2.852-0.865c-1.36,0-2.667,0.541-3.629,1.502
	C460.556,371.504,460.016,372.811,460.016,374.17z"/>
<path fill="#263238" d="M416.683,372.471c0,1.016,0.301,2.008,0.865,2.852c0.563,0.844,1.365,1.502,2.303,1.891
	c0.938,0.389,1.97,0.49,2.965,0.293c0.996-0.197,1.91-0.688,2.628-1.404c0.718-0.719,1.206-1.633,1.404-2.629
	c0.198-0.994,0.097-2.027-0.292-2.965c-0.388-0.938-1.046-1.738-1.89-2.303c-0.845-0.564-1.836-0.865-2.852-0.865
	c-1.36,0-2.667,0.541-3.629,1.502C417.224,369.807,416.683,371.111,416.683,372.471z"/>
<path fill="#263238" d="M420.222,366.195v-9.922h-14.7c-2.885-0.004-5.765,0.266-8.6,0.803l-27.371,5.309
	c-0.614,0.119-1.16,0.467-1.531,0.971c-0.37,0.504-0.536,1.129-0.467,1.752c0.069,0.621,0.372,1.193,0.845,1.602
	c0.473,0.41,1.082,0.627,1.708,0.607L420.222,366.195z"/>
<path fill="#263238" d="M420.222,366.195v-9.922h14.712c2.876,0.018,5.743,0.305,8.565,0.861l30.768,4.908
	c0.614,0.119,1.161,0.465,1.531,0.969c0.37,0.506,0.537,1.131,0.467,1.754c-0.07,0.619-0.371,1.193-0.844,1.602
	c-0.474,0.41-1.083,0.627-1.708,0.607L420.222,366.195z"/>
<path fill="#263238" d="M429.317,310.854h-18.204v45.432h18.204V310.854z"/>
<path fill="#263238" d="M426.711,289.711h-12.979v21.131h12.979V289.711z"/>
<path opacity="0.5" enable-background="new    " d="M413.732,295.916l12.979,3.27v-9.475h-12.979V295.916z"/>
<path fill="#263238" d="M378.27,241.906h-6.595v28.139h6.595V241.906z"/>
<path fill="#7E57C2" d="M411.338,289.711V167.38c-0.001-2.288,0.487-4.551,1.434-6.635s2.328-3.941,4.052-5.446l8.72-7.633
	c2.936-2.575,6.712-3.989,10.618-3.975h31.487l15.36,16.422v129.598H411.338z"/>
<path fill="#7E57C2" d="M364.454,266.045h71.848v23.666h-83.563c-1.498-0.002-2.97-0.4-4.265-1.154
	c-1.295-0.752-2.368-1.836-3.11-3.137c-0.742-1.303-1.127-2.775-1.117-4.275c0.011-1.498,0.416-2.967,1.178-4.258
	c1.953-3.307,4.736-6.047,8.074-7.949C356.837,267.037,360.612,266.039,364.454,266.045z"/>
<path opacity="0.7" fill="#FFFFFF" enable-background="new    " d="M483.009,160.113v129.598h-130.27
	c-1.498-0.002-2.97-0.4-4.265-1.154s-2.368-1.836-3.11-3.137c-0.742-1.303-1.127-2.775-1.117-4.275
	c0.011-1.498,0.416-2.967,1.178-4.258c1.954-3.307,4.738-6.045,8.074-7.947c3.339-1.902,7.113-2.898,10.955-2.895h36.184
	c2.85,0,5.584-1.133,7.6-3.148c2.016-2.014,3.148-4.748,3.148-7.598V167.38c-0.002-2.288,0.487-4.551,1.433-6.635
	c0.947-2.084,2.328-3.941,4.054-5.446l8.718-7.633c2.936-2.575,6.712-3.989,10.618-3.975h31.487L483.009,160.113z"/>
<path fill="#7E57C2" d="M421.814,289.711V167.38c0.001-2.288,0.492-4.549,1.438-6.633c0.945-2.083,2.326-3.941,4.048-5.448
	l8.718-7.633c2.938-2.575,6.713-3.989,10.618-3.975h24.551c2.193-0.002,4.364,0.446,6.377,1.317c2.014,0.87,3.826,2.145,5.326,3.744
	l6.277,6.665c2.797,2.983,4.353,6.919,4.353,11.008v111.028c0.002,1.611-0.314,3.207-0.931,4.695c-0.616,1.49-1.521,2.842-2.66,3.98
	s-2.493,2.041-3.982,2.656c-1.488,0.615-3.085,0.93-4.695,0.926H421.814z"/>
<path opacity="0.5" fill="#FFFFFF" enable-background="new    " d="M421.814,289.711V167.38c0.001-2.288,0.492-4.549,1.438-6.633
	c0.945-2.083,2.326-3.941,4.048-5.448l8.718-7.633c2.938-2.575,6.713-3.989,10.618-3.975h24.551
	c2.193-0.002,4.364,0.446,6.377,1.317c2.014,0.87,3.826,2.145,5.326,3.744l6.277,6.665c2.797,2.983,4.353,6.919,4.353,11.008
	v111.028c0.002,1.611-0.314,3.207-0.931,4.695c-0.616,1.49-1.521,2.842-2.66,3.98s-2.493,2.041-3.982,2.656
	c-1.488,0.615-3.085,0.93-4.695,0.926H421.814z"/>
<path fill="#7E57C2" d="M397.37,250.496c-14.514-5.072-30.318-5.072-44.832,0c-1.457,0.543-3.061,0.537-4.514-0.016
	s-2.654-1.617-3.379-2.992c-1.345-2.844,0.46-6.525,4.118-7.811c16.95-5.924,35.407-5.924,52.358,0
	c3.656,1.273,5.462,4.967,4.116,7.811c-0.724,1.369-1.922,2.428-3.368,2.982C400.423,251.023,398.823,251.033,397.37,250.496z"/>
<path opacity="0.7" fill="#FFFFFF" enable-background="new    " d="M397.37,250.496c-14.514-5.072-30.318-5.072-44.832,0
	c-1.457,0.543-3.061,0.537-4.514-0.016s-2.654-1.617-3.379-2.992c-1.345-2.844,0.46-6.525,4.118-7.811
	c16.95-5.924,35.407-5.924,52.358,0c3.656,1.273,5.462,4.967,4.116,7.811c-0.724,1.369-1.922,2.428-3.368,2.982
	C400.423,251.023,398.823,251.033,397.37,250.496z"/>
<path fill="#263238" d="M214.021,133.438c-0.247,0.696-0.071,1.392,0.39,1.546c0.46,0.153,1.026-0.272,1.262-0.968
	c0.236-0.696,0.071-1.404-0.378-1.557C214.848,132.306,214.27,132.73,214.021,133.438z"/>
<path fill="#A02724" d="M213.892,134.158c0.097,2.429,0.521,4.834,1.263,7.149c-0.595,0.168-1.218,0.207-1.829,0.113
	c-0.61-0.093-1.194-0.317-1.71-0.655L213.892,134.158z"/>
<path fill="#263238" d="M212.89,128.696c0.043,0.018,0.089,0.027,0.135,0.027c0.047,0,0.093-0.009,0.136-0.027
	c0.519-0.166,1.068-0.209,1.607-0.127c0.538,0.082,1.05,0.287,1.496,0.599c0.046,0.034,0.099,0.059,0.155,0.073
	c0.056,0.014,0.114,0.016,0.171,0.007c0.057-0.008,0.112-0.028,0.161-0.058c0.05-0.031,0.092-0.07,0.126-0.117
	c0.065-0.08,0.101-0.18,0.101-0.283s-0.036-0.203-0.101-0.283c-0.554-0.412-1.198-0.686-1.88-0.798
	c-0.681-0.113-1.379-0.062-2.037,0.149c-0.107,0.04-0.195,0.12-0.246,0.223c-0.05,0.103-0.059,0.222-0.025,0.332
	c0.02,0.063,0.055,0.121,0.102,0.169c0.048,0.047,0.106,0.082,0.169,0.102L212.89,128.696z"/>
<path fill="#B55B52" d="M188.15,136.01c1.321,6.713,2.631,19.018-2.065,23.501c0,0,1.841,6.807,14.323,6.807
	c13.72,0,6.559-6.807,6.559-6.807c-7.491-1.793-6.288-7.35-4.978-12.564L188.15,136.01z"/>
<path fill="#B55B52" d="M191.206,123.835c-2.454,8.778-4.342,13.792-1.534,19.702c4.212,8.907,18.935,10.064,22.946-0.13
	c3.056-9.438,6.076-19.312-1.179-25.648c-1.587-1.405-3.506-2.381-5.575-2.837c-2.07-0.456-4.221-0.375-6.251,0.233
	c-2.03,0.608-3.871,1.725-5.348,3.244c-1.478,1.519-2.543,3.39-3.095,5.436H191.206z"/>
<path fill="#263238" d="M181.697,126.761c-0.637-3.233-0.803-6.772,0.814-9.651c1.616-2.878,5.521-4.636,8.364-2.961
	c0.924-1.946,2.291-3.649,3.991-4.972c1.699-1.323,3.685-2.23,5.799-2.648c2.113-0.419,4.295-0.336,6.37,0.24
	c2.076,0.576,3.988,1.629,5.584,3.077c1.595,1.447,2.83,3.248,3.605,5.258c0.775,2.01,1.068,4.174,0.857,6.317
	c-0.211,2.145-0.92,4.209-2.072,6.029c-1.152,1.821-2.714,3.346-4.561,4.455c0.648-2.419,1.309-4.826,1.958-7.244
	c-0.58,3.367-2.366,6.408-5.026,8.553l1.18-7.232c-0.186,1.707-0.766,3.348-1.696,4.791c-0.93,1.444-2.183,2.651-3.66,3.527
	l1.38-5.062c-0.699,2.328-1.591,4.593-2.666,6.772c-1.18,1.357-1.935,10.229-5.993,10.512
	C181.979,149.294,183.183,134.311,181.697,126.761z"/>
<path fill="#B55B52" d="M200.467,130.961c-0.236,2.25,0.27,4.516,1.439,6.453c1.569,2.525,3.87,1.557,4.719-1.026
	c0.755-2.36,0.838-6.43-1.345-8.07C203.098,126.678,200.797,128.259,200.467,130.961z"/>
<path fill="#B55B52" d="M167.208,216c-1.498-0.496-8.518-4.106-9.639-3.457c3.245-8.26,5.262-9.546,6.737-14.807
	c0.411-1.308,0.482-2.696,0.208-4.038c-0.275-1.341-0.886-2.591-1.777-3.631c-2.076-2.784-2.796-4.188-6.241-3.846
	c-4.719,7.928-10.724,17.696-13.06,26.651c-0.791,3.01-1.357,5.297,0.437,7.846c1.581,2.24,4.495,3.139,7.232,3.387
	c6.571,0.588,16.328-0.615,16.198-4.52C167.232,217.119,167.208,216,167.208,216z"/>
<path fill="#B55B52" d="M166.1,215.705l5.569-1.805l-0.496,10.063c0,0-4.459,0.152-6.843-2.83L166.1,215.705z"/>
<path fill="#B55B52" d="M178.629,213.734l-0.79,8.305l-6.666,1.924l0.496-10.063L178.629,213.734z"/>
<path fill="#B55B52" d="M242.478,222.854c0,0-7.798-6.111-17.968-26.167c-1.51-2.809-2.949-5.651-4.341-8.506
	c-1.392-2.855-2.714-5.711-3.988-8.742l12.057-5.191c2.478,5.403,6.348,10.982,9.085,16.352c2.737,5.367,9.19,18.086,10.004,19.266
	c0.4,0.613,0.838,1.121,1.25,1.688l0.625,0.824l-7.774,8.991L242.478,222.854z"/>
<path fill="#B55B52" d="M252.683,183.708l-2.359-2.878l-1.108-4.307l7.278-6.761c1.113,1.416,2.104,2.924,2.961,4.508
	c0.188,0.363,0.277,0.771,0.261,1.18l-0.296,7.586L252.683,183.708z"/>
<path fill="#B55B52" d="M249.262,171.875l5.438-4.943l1.723,2.89l-7.268,6.726L249.262,171.875z"/>
<path fill="#B55B52" d="M252.788,181.632c0.189-0.813,0.354,0.778,0.897,0.142c1.604-1.935,3.94-2.136,5.333,0
	s0.2,23.146-2.018,29.742c-1.475,4.377-2.266,7.87-6.041,10.538c-1.525,1.176-3.383,1.846-5.308,1.91
	c-0.959,0.012-1.902-0.252-2.717-0.758s-1.469-1.232-1.884-2.098c-1.18-2.748,3.044-12.659,4.53-15.856
	C250.241,195.187,250.56,191.142,252.788,181.632z"/>
<path fill="#7E57C2" d="M237.181,180.724l9.639-0.095c1.375,0.089,2.753-0.129,4.035-0.637c1.57-0.917,2.743-2.384,3.291-4.117
	c1.369-3.54,1.487-7.339,2.018-11.043c0.531-3.704,1.664-7.598,4.472-10.087c-5.12,0.684-14.157-0.92-18.11,3.268
	C240.449,160.243,236.78,180.724,237.181,180.724z"/>
<path opacity="0.5" fill="#FFFFFF" enable-background="new    " d="M237.181,180.724l9.639-0.095
	c1.375,0.089,2.753-0.129,4.035-0.637c1.57-0.917,2.743-2.384,3.291-4.117c1.369-3.54,1.487-7.339,2.018-11.043
	c0.531-3.704,1.664-7.598,4.472-10.087c-5.12,0.684-14.157-0.92-18.11,3.268C240.449,160.243,236.78,180.724,237.181,180.724z"/>
<path fill="#B55B52" d="M253.674,166.401c-0.554,0.153-0.92,2.124-0.802,2.689l0.543,0.967l1.097,4.72l3.681-2.029l-3.314-5.899
	c-0.127-0.193-0.313-0.34-0.529-0.421C254.133,166.348,253.896,166.338,253.674,166.401z"/>
<path fill="#7E57C2" d="M170.536,161.198c-8.612,1.97-21.354,28.811-21.354,28.811l17.284,11.797
	c4.978-7.103,9.471-14.531,13.449-22.238C185.023,168.879,179.336,159.181,170.536,161.198z"/>
<path fill="#263238" d="M183.112,161.847c-0.991-2.159-2.064-4.625,0.165-5.391c2.466-0.85,15.963-1.723,20.611-0.13
	c0.609,0.165,1.179,0.449,1.678,0.835c0.499,0.386,0.917,0.867,1.229,1.416c0.312,0.548,0.513,1.152,0.592,1.778
	c0.078,0.626,0.031,1.262-0.137,1.87v0.082L183.112,161.847z"/>
<path opacity="0.2" enable-background="new    " d="M175.856,176.7l-12.281,23.124l2.89,1.981c0,0,5.568-7.75,9.438-14.451
	L175.856,176.7z"/>
<path fill="#7E57C2" d="M222.882,173.009c1.864,9.438-2.489,31.854-2.442,68.427h-49.102c-0.318-7.385,5.061-24.895-1.628-59.769
	c-0.212-1.179-0.307-20.233,0.826-20.433c4.755-0.831,9.552-1.399,14.37-1.699c6.954-0.401,13.927-0.401,20.881,0
	c2.844,0.295,7.315,2.053,10.146,3.067C220.333,164.16,221.986,168.371,222.882,173.009z"/>
<path opacity="0.2" enable-background="new    " d="M209.905,182.388c1.274,7.75,6.359,17.99,11.42,24.008
	c0.201-4.4,0.649-9.002,0.637-12.529L209.905,182.388z"/>
<path fill="#7E57C2" d="M206.366,170.731c-1.18,8.695,15.926,30.886,15.926,30.886l17.213-11.798c0,0-4.778-12.234-12.812-20.256
	C217.573,160.384,207.746,161.293,206.366,170.731z"/>
<path fill="#B55B52" d="M262.663,363.188h9.18l2.088-21.271h-9.18L262.663,363.188z"/>
<path opacity="0.2" enable-background="new    " d="M273.788,343.201l-1.061,10.961h-9.191l1.074-10.961H273.788z"/>
<path fill="#B55B52" d="M226.457,363.188h9.179l4.613-21.271h-9.179L226.457,363.188z"/>
<g opacity="0.2">
	<path opacity="0.2" enable-background="new    " d="M230.869,343.049h9.179l-2.383,10.959h-9.179L230.869,343.049z"/>
</g>
<path fill="#263238" d="M272.362,359.059h-10.017c-0.208,0.023-0.399,0.119-0.544,0.27c-0.145,0.152-0.232,0.348-0.247,0.555
	l-1.817,10.5c-0.104,0.408-0.062,0.84,0.119,1.219c0.182,0.381,0.49,0.684,0.872,0.857c0.11,0.02,0.222,0.02,0.331,0
	c3.609-0.068,8.836-0.354,13.378-0.354c5.321,0,9.91,0.365,16.14,0.365c3.775,0,4.826-4.93,3.244-5.367
	c-7.185-2.029-13.048-2.24-19.254-7.207C273.95,359.371,273.171,359.076,272.362,359.059z"/>
<path fill="#7E57C2" d="M279.653,362.467c1.18,0,2.358-0.164,2.7-0.695c0.099-0.141,0.15-0.307,0.15-0.479
	c0-0.17-0.052-0.338-0.15-0.477c-0.155-0.248-0.399-0.43-0.685-0.508c-1.532-0.412-4.719,1.416-4.871,1.498
	c-0.041,0.02-0.073,0.053-0.092,0.094c-0.02,0.041-0.024,0.086-0.014,0.131c0.006,0.043,0.024,0.082,0.053,0.115
	c0.031,0.029,0.068,0.053,0.111,0.061C277.778,362.383,278.715,362.469,279.653,362.467z M281.116,360.686h0.412
	c0.088,0.018,0.172,0.055,0.245,0.107s0.134,0.121,0.179,0.199c0.154,0.271,0.107,0.402,0,0.473
	c-0.424,0.602-2.748,0.613-4.459,0.365c1.125-0.605,2.354-0.998,3.623-1.156V360.686z"/>
<path fill="#7E57C2" d="M276.88,362.207h0.095c1.108-0.494,3.304-2.477,3.126-3.539c0-0.248-0.212-0.543-0.802-0.613
	c-0.429-0.031-0.851,0.104-1.181,0.379c-1.18,0.955-1.416,3.432-1.426,3.537c-0.007,0.039-0.002,0.078,0.012,0.113
	c0.016,0.035,0.039,0.066,0.069,0.088C276.805,362.195,276.842,362.207,276.88,362.207z M279.122,358.492h0.129
	c0.39,0,0.414,0.199,0.425,0.248c0.106,0.625-1.392,2.182-2.524,2.854c0.096-1.037,0.508-2.021,1.18-2.818
	C278.556,358.596,278.833,358.496,279.122,358.492z"/>
<path fill="#263238" d="M236.284,359.059h-10.311c-0.206,0.023-0.397,0.119-0.539,0.271c-0.142,0.15-0.227,0.346-0.239,0.553
	l-1.817,10.5c-0.099,0.416-0.048,0.854,0.144,1.236c0.192,0.381,0.513,0.684,0.906,0.852c0.098,0.014,0.197,0.014,0.295,0
	c3.598-0.07,5.356-0.354,9.886-0.354c2.796,0,6.371,0.367,10.229,0.367s4.353-4.932,2.772-5.369
	c-7.079-2.006-7.563-4.719-9.828-7.408c-0.188-0.211-0.419-0.377-0.678-0.49C236.846,359.105,236.565,359.051,236.284,359.059z"/>
<path fill="#7E57C2" d="M241.676,363.635c0.389,0.055,0.785,0.029,1.165-0.074c0.379-0.104,0.733-0.283,1.041-0.527
	c0.109-0.148,0.167-0.328,0.167-0.512c0-0.186-0.058-0.365-0.167-0.514c-0.07-0.131-0.167-0.242-0.285-0.33
	c-0.119-0.088-0.255-0.148-0.399-0.178c-1.345-0.318-3.882,1.416-3.988,1.486c-0.033,0.025-0.06,0.061-0.076,0.1
	c-0.017,0.039-0.023,0.082-0.018,0.125c0.007,0.041,0.026,0.078,0.056,0.109c0.03,0.029,0.068,0.049,0.109,0.055
	C240.067,363.551,240.871,363.637,241.676,363.635z M242.855,361.891h0.259c0.084,0.014,0.163,0.049,0.232,0.098
	c0.069,0.047,0.127,0.111,0.169,0.184c0.201,0.367,0.083,0.508,0,0.566c-0.389,0.508-2.265,0.52-3.645,0.295
	c0.887-0.609,1.899-1.012,2.961-1.18L242.855,361.891z"/>
<path fill="#7E57C2" d="M239.398,363.387c0.956-0.518,2.796-2.523,2.596-3.537c-0.031-0.164-0.117-0.311-0.244-0.416
	s-0.287-0.162-0.452-0.162c-0.165-0.018-0.331,0-0.489,0.049c-0.158,0.049-0.305,0.127-0.432,0.232
	c-1.062,0.873-1.286,3.539-1.297,3.635c-0.002,0.039,0.007,0.08,0.025,0.113c0.019,0.035,0.047,0.066,0.081,0.086H239.398z
	 M241.25,359.672h0.095c0.283,0,0.306,0.164,0.318,0.225c0.118,0.602-1.062,2.123-2.005,2.842c0.073-1.045,0.45-2.045,1.085-2.879
	C240.886,359.74,241.064,359.672,241.25,359.672z"/>
<path fill="#263238" d="M205.729,241.412c0,0,43.474,17.955,52.464,31.746c-5.345,35.088-14.936,75.059-14.936,75.059h-16.352
	c0.026-17.295,1.443-34.561,4.236-51.627c2.359-42.885-74.821,1.486-59.826-55.178H205.729z"/>
<path opacity="0.3" enable-background="new    " d="M235.789,271.012c-3.045,0.18-6.078,0.529-9.084,1.051l-9.521,1.463
	c4.911,4.125,10.094,7.918,15.514,11.348c3.292,2.09,6.878,4.096,10.759,4.107c4.367,0,16.21-5.592,14.251-11.408
	C255.751,271.754,240.744,270.801,235.789,271.012z"/>
<path fill="#263238" d="M220.452,241.412c0,0,40.183,5.191,62.338,17.803c6.82,3.881,5.899,16.352,5.687,24.563
	c-0.476,22.035-4.704,43.826-12.505,64.439H262.31c0,0,0.696-22.264,0.236-58.188c-0.141-10.77-21.885-14.322-43.132-15.572
	c-8.998-0.566-17.658-3.635-25.005-8.861c-7.346-5.227-13.085-12.4-16.57-20.717l-1.451-3.467H220.452z"/>
<path fill="#7E57C2" d="M279.286,344.559c0.071,0-0.885,6.453-0.885,6.453h-18.875l-0.52-5.758L279.286,344.559z"/>
<path fill="#7E57C2" d="M244.838,344.559c0.071,0-1.734,6.453-1.734,6.453h-18.877l0.342-5.758L244.838,344.559z"/>
<path fill="#7E57C2" d="M194.12,273.973l-13.532,99.703l-2.442-0.344l10.44-100.113L194.12,273.973z"/>
<path opacity="0.4" enable-background="new    " d="M193.636,277.549l-13.048,96.127l-2.442-0.344l9.992-95.809L193.636,277.549z"/>
<path fill="#7E57C2" d="M241.688,277.535h-76.685c0-1.148,0.227-2.287,0.667-3.35s1.085-2.027,1.898-2.84s1.778-1.457,2.84-1.896
	s2.2-0.668,3.35-0.668h59.177c1.15,0,2.288,0.229,3.35,0.668s2.027,1.084,2.84,1.896s1.458,1.777,1.897,2.84
	C241.46,275.248,241.688,276.387,241.688,277.535z"/>
<path opacity="0.7" fill="#FFFFFF" enable-background="new    " d="M241.688,277.535h-76.685c0-1.148,0.227-2.287,0.667-3.35
	s1.085-2.027,1.898-2.84s1.778-1.457,2.84-1.896s2.2-0.668,3.35-0.668h59.177c1.15,0,2.288,0.229,3.35,0.668s2.027,1.084,2.84,1.896
	s1.458,1.777,1.897,2.84C241.46,275.248,241.688,276.387,241.688,277.535z"/>
<path fill="#7E57C2" d="M168.554,277.523l-11.562,96.941h2.477l14.665-96.941H168.554z"/>
<path fill="#7E57C2" d="M238.137,277.523l11.562,96.941h-2.478l-14.653-96.941H238.137z"/>
<path opacity="0.4" enable-background="new    " d="M238.137,277.523l11.562,96.941h-2.478l-14.653-96.941H238.137z"/>
<path fill="#7E57C2" d="M222.669,277.523l0.224,96.941h-2.466l-3.338-96.941H222.669z"/>
<g>
	<defs>
		<rect id="SVGID_3_" x="555.789" y="211.888" width="19.811" height="161.301"/>
	</defs>
	<clipPath id="SVGID_4_">
		<use xlink:href="#SVGID_3_"  overflow="visible"/>
	</clipPath>
	<g clip-path="url(#SVGID_4_)">
		<path fill="#121212" fill-opacity="0.4" d="M565.689,356.039l-9.9,17.15H575.6L565.689,356.039z"/>
		<path fill="#121212" fill-opacity="0.4" d="M565.689,327.309l-9.9,17.16H575.6L565.689,327.309z"/>
		<path fill="#121212" fill-opacity="0.4" d="M565.689,298.59l-9.9,17.148H575.6L565.689,298.59z"/>
		<path fill="#121212" fill-opacity="0.2" d="M565.689,257.889l-5.74,9.951h11.49L565.689,257.889z"/>
	</g>
</g>
<g>
	<defs>
		<rect id="SVGID_5_" x="357.241" y="40.991" width="29.811" height="29.811"/>
	</defs>
	<clipPath id="SVGID_6_">
		<use xlink:href="#SVGID_5_"  overflow="visible"/>
	</clipPath>
	<g clip-path="url(#SVGID_6_)">
		<path fill="#121212" fill-opacity="0.3" d="M387.062,47.051l-6.07-6.06l-8.84,8.84l-8.85-8.84l-6.061,6.06l8.84,8.85l-8.84,8.84
			l6.061,6.07l8.85-8.851l8.84,8.851l6.07-6.07l-8.85-8.84L387.062,47.051z"/>
	</g>
</g>
</svg>
